<svg xmlns="http://www.w3.org/2000/svg" viewBox="0 0 24 24" fill="none" stroke="#F4A28A" stroke-width="1.4" stroke-linecap="round" stroke-linejoin="round">
  <path d="M12 10a2 2 0 0 0-2 2c0 2.5 2 6 2 6"/>
  <path d="M12 10a2 2 0 0 1 2 2c0 2.5-2 6-2 6"/>
  <path d="M9 12c0-1.66 1.34-3 3-3s3 1.34 3 3c0 3-2 6.5-3 8"/>
  <path d="M6.17 10A6 6 0 0 0 6 12c0 3.5 2.5 8 6 9"/>
  <path d="M6 12a6 6 0 0 1 6-6 6 6 0 0 1 5.65 4"/>
  <path d="M17.7 15A9 9 0 0 0 18 12 6 6 0 0 0 6 12"/>
  <path d="M3.5 12a8.5 8.5 0 0 1 8.5-8.5 8.5 8.5 0 0 1 8.5 8.5c0 1.33-.31 2.58-.86 3.7"/>
  <path d="M3 12a9 9 0 0 1 17.75-2"/>
</svg>
